<svg width="64" height="64" viewBox="0 0 64 64" fill="none" xmlns="http://www.w3.org/2000/svg">
<path fill-rule="evenodd" clip-rule="evenodd" d="M58.6673 31.9999C58.6673 17.2723 46.7282 5.33325 32.0007 5.33325C17.2731 5.33325 5.33398 17.2723 5.33398 31.9999C5.33398 46.7275 17.2731 58.6666 32.0007 58.6666C46.7282 58.6666 58.6673 46.7275 58.6673 31.9999ZM32.0007 16.6666C33.1052 16.6666 34.0007 17.562 34.0007 18.6666V34.6666C34.0007 35.7712 33.1052 36.6666 32.0007 36.6666C30.8961 36.6666 30.0007 35.7712 30.0007 34.6666V18.6666C30.0007 17.562 30.8961 16.6666 32.0007 16.6666ZM32.0007 45.3333C33.4734 45.3333 34.6673 44.1393 34.6673 42.6666C34.6673 41.1938 33.4734 39.9999 32.0007 39.9999C30.5279 39.9999 29.334 41.1938 29.334 42.6666C29.334 44.1393 30.5279 45.3333 32.0007 45.3333Z" fill="#D80029"/>
</svg>
